<?xml version="1.0" standalone="no"?><!DOCTYPE svg PUBLIC "-//W3C//DTD SVG 1.1//EN" "http://www.w3.org/Graphics/SVG/1.1/DTD/svg11.dtd"><svg t="1655949123210" class="icon" viewBox="0 0 1024 1024" version="1.1" xmlns="http://www.w3.org/2000/svg" p-id="3473" width="40" height="40" xmlns:xlink="http://www.w3.org/1999/xlink"><defs><style type="text/css">@font-face { font-family: feedback-iconfont; src: url("//at.alicdn.com/t/font_1031158_u69w8yhxdu.woff2?t=1630033759944") format("woff2"), url("//at.alicdn.com/t/font_1031158_u69w8yhxdu.woff?t=1630033759944") format("woff"), url("//at.alicdn.com/t/font_1031158_u69w8yhxdu.ttf?t=1630033759944") format("truetype"); }
</style></defs><path d="M687.542857 590.628571h-347.428571c-69.485714 0-124.342857 56.685714-124.342857 124.342858v12.8c0 69.485714 56.685714 124.342857 124.342857 124.342857h347.428571c69.485714 0 124.342857-56.685714 124.342857-124.342857v-12.8c0-69.485714-56.685714-124.342857-124.342857-124.342858z m-341.942857 219.428572c-49.371429 0-87.771429-38.4-87.771429-87.771429s38.4-87.771429 87.771429-87.771428c49.371429 0 87.771429 38.4 87.771429 87.771428s-38.4 87.771429-87.771429 87.771429zM336.457143 431.542857h347.428571c69.485714 0 124.342857-56.685714 124.342857-124.342857v-12.8c0-69.485714-56.685714-124.342857-124.342857-124.342857h-347.428571c-69.485714 0-124.342857 56.685714-124.342857 124.342857v12.8c0 69.485714 56.685714 124.342857 124.342857 124.342857zM678.4 213.942857c49.371429 0 87.771429 38.4 87.771429 87.771429s-38.4 87.771429-87.771429 87.771428c-49.371429 0-87.771429-38.4-87.771429-87.771428S629.028571 213.942857 678.4 213.942857z" p-id="3474" fill="#1296db"></path><path d="M883.2 0h-740.571429c-78.628571 0-142.628571 64-142.628571 142.628571v738.742858c0 78.628571 64 142.628571 142.628571 142.628571h738.742858c78.628571 0 142.628571-64 142.628571-142.628571V142.628571c0-78.628571-64-142.628571-140.8-142.628571zM175.542857 294.4c0-87.771429 71.314286-160.914286 160.914286-160.914286h347.428571c87.771429 0 160.914286 71.314286 160.914286 160.914286v12.8c0 87.771429-73.142857 160.914286-160.914286 160.914286h-347.428571c-87.771429 0-160.914286-71.314286-160.914286-160.914286v-12.8z m672.914286 433.371429c0 87.771429-73.142857 160.914286-160.914286 160.914285h-347.428571c-87.771429 0-160.914286-71.314286-160.914286-160.914285v-12.8c0-87.771429 71.314286-160.914286 160.914286-160.914286h347.428571c87.771429 0 160.914286 71.314286 160.914286 160.914286v12.8z" p-id="3475" fill="#1296db"></path></svg>